<?xml version="1.0" encoding="utf-8"?>

<!DOCTYPE svg PUBLIC "-//W3C//DTD SVG 1.1//EN" "http://www.w3.org/Graphics/SVG/1.1/DTD/svg11.dtd">
<svg version="1.1" id="Layer_1" xmlns="http://www.w3.org/2000/svg" xmlns:xlink="http://www.w3.org/1999/xlink" x="0px" y="0px"
	 viewBox="0 0 1733.654 1693.909" enable-background="new 0 0 1733.654 1693.909" xml:space="preserve">
<g>
	<path fill="#231F20" d="M1694.17,714.76c-17.45-166.57-111.25-320.95-264.11-434.71c-9.12-6.79-18.4-13.39-27.84-19.81
		c-0.16-0.12-0.32-0.23-0.48-0.33c-143.74-97.66-323.4-152.77-511.77-156.76c-0.6-0.24-1.19-0.48-1.79-0.72V42.75
		c0-2.32-1.88-4.2-4.2-4.2h-16.06c-2.32,0-4.2,1.88-4.2,4.2v59.58c-0.51,0.21-1.02,0.4-1.53,0.61
		c-76.54,0.42-151.61,9.21-223.52,25.83c-0.27,0.06-0.53,0.12-0.8,0.18c-82.83,19.21-161.45,48.8-233.26,87.93
		c-0.27,0.15-0.53,0.29-0.79,0.43c-38.88,21.24-75.77,45.28-110.24,71.99c-75.55,58.54-135.95,127-179.51,203.49
		c-45,79.01-70.1,163.37-74.61,250.74c-0.1,2.02,1.25,3.83,3.21,4.3c1.97,0.47,4-0.52,4.82-2.37
		c33.65-75.19,111.55-123.78,198.46-123.78c94.76,0,177.39,57.04,205.63,141.94c0.45,1.35,1.54,2.34,2.87,2.71
		c-0.64,4.41-0.95,6.84-0.97,7.02c-0.14,1.15,0.68,2.2,1.83,2.34c0.09,0.01,0.17,0.01,0.26,0.01c1.04,0,1.95-0.78,2.08-1.85
		c0.02-0.2,0.42-3.35,1.26-9.03c0.27-0.36,0.49-0.76,0.64-1.21c28.14-84.89,110.74-141.93,205.54-141.93
		c87.18,0,165.6,50.07,198.63,124.25v3.737v1.073v0.01v1.649V1177c0,95.15,0.28,190.27-1.35,285.41
		c-0.12,6.61-0.23,13.22-0.34,19.83c-0.46,26.38-0.96,53.13-8.38,78.46c-7.42,25.32-22.72,49.47-46.08,61.72
		c-28.85,15.12-66.47,8.79-91.17-12.44c-24.7-21.23-36.61-55.28-34.2-87.76c0.48-6.54,1.47-13.32-0.69-19.51
		c-2.15-6.2-8.81-11.45-15.05-9.41c-6.28,2.06-8.44,9.74-9.23,16.3c-4.86,39.95,6.81,82.49,34.59,111.61
		c27.78,29.12,72.06,42.78,110.4,30.53c24.4-7.8,45.14-25.25,59.16-46.7c31.13-47.62,27.71-108.43,26.89-162.83
		c-0.45-30.05-0.09-60.14-0.09-90.19V771.48c0-4.97-1.63-14.17-1.02-20.73h-0.102v-0.01h0.102c0.16-1.74,0.47-3.31,1.02-4.55
		c32.96-74.33,111.46-124.51,198.74-124.51c93.03,0,175.15,55.65,204.35,138.48c0.42,1.18,1.33,2.07,2.44,2.51
		c0.4,2.75,0.59,4.28,0.61,4.42c0.13,1.06,1.03,1.84,2.08,1.84c0.09,0,0.17,0,0.26-0.01c1.15-0.15,1.97-1.19,1.83-2.34
		c-0.02-0.14-0.22-1.72-0.63-4.55c0.6-0.48,1.07-1.12,1.34-1.87c29.11-82.83,111.2-138.48,204.26-138.48
		c75.17,0,143.59,35.82,183.02,95.82c1.07,1.62,3.1,2.3,4.92,1.65C1693.23,718.5,1694.38,716.69,1694.17,714.76z"/>
	<g>
		<path fill="#FFFFFF" d="M423.11,267.26c-3.81,6.62-10.87,10.69-18.51,10.69c-7.64,0-14.69-4.07-18.51-10.69
			c-3.82-6.61-3.82-14.76,0-21.37c3.29-5.71,14.66-23.71,17.73-28.58c0.5-0.78,0.78-1.22,0.78-1.22c0,0.27,0,0.53,0.01,0.79
			c0.44,16.7,14.75,22.49,18.5,29.01C426.93,252.5,426.93,260.65,423.11,267.26z"/>
		<path fill="#FFFFFF" d="M442.92,396.48c-3.45,5.97-9.82,9.65-16.72,9.65c-6.9,0-13.27-3.68-16.72-9.65
			c-3.45-5.97-3.45-13.34,0-19.31c3.45-5.98,16.72-26.92,16.72-26.92c0,15.64,13.27,20.95,16.72,26.92S446.37,390.5,442.92,396.48z"
			/>
		<path fill="#FFFFFF" d="M812.37,513.77c-7.39,12.81-21.06,20.7-35.85,20.7c-14.8,0-28.47-7.89-35.86-20.7
			c-7.4-12.81-7.4-28.6,0-41.41c7.39-12.81,35.86-57.72,35.86-57.72c0,33.54,28.46,44.91,35.85,57.72
			C819.77,485.17,819.77,500.96,812.37,513.77z"/>
		<path fill="#FFFFFF" d="M1308.47,708.57c-2.15,3.72-6.12,6.01-10.42,6.01c-4.29,0-8.26-2.29-10.41-6.01
			c-2.15-3.73-2.15-8.31,0-12.03c2.14-3.72,10.41-16.76,10.41-16.76c0,9.74,8.27,13.04,10.42,16.76
			C1310.61,700.26,1310.61,704.84,1308.47,708.57z"/>
		<path fill="#FFFFFF" d="M1367.69,592.25c-5.03,8.7-14.31,14.06-24.36,14.06c-10.04,0-19.33-5.36-24.35-14.06
			c-5.03-8.7-5.03-19.42,0-28.12c5.02-8.7,24.35-39.2,24.35-39.2c0,22.77,19.33,30.5,24.36,39.2
			C1372.71,572.83,1372.71,583.55,1367.69,592.25z"/>
		<path fill="#FFFFFF" d="M1141.25,240.3c-2,3.46-5.69,5.59-9.69,5.59s-7.69-2.13-9.69-5.59c-1.99-3.46-1.99-7.73,0-11.19
			c2-3.46,9.69-15.59,9.69-15.59c0,9.06,7.69,12.13,9.69,15.59C1143.24,232.57,1143.24,236.84,1141.25,240.3z"/>
		<path fill="#FFFFFF" d="M515.56,401.51c-2.26,3.92-6.43,6.33-10.95,6.33c-4.52,0-8.7-2.41-10.96-6.33
			c-2.26-3.91-2.26-8.74,0-12.65c2.26-3.91,10.96-17.64,10.96-17.64c0,10.25,8.69,13.73,10.95,17.64
			C517.82,392.78,517.82,397.6,515.56,401.51z"/>
		<path fill="#FFFFFF" d="M1274.9,503.03c-6.61,11.45-18.83,18.51-32.05,18.51c-13.23,0-25.45-7.06-32.06-18.51
			c-6.61-11.45-6.61-25.56,0-37.02c6.61-11.45,32.06-51.6,32.06-51.6c0,29.98,25.44,40.15,32.05,51.6
			C1281.52,477.47,1281.52,491.58,1274.9,503.03z"/>
		<path fill="#FFFFFF" d="M859.08,484.94c-2.16,3.75-6.16,6.06-10.49,6.06c-4.33,0-8.33-2.31-10.49-6.06
			c-2.16-3.74-2.16-8.36,0-12.11c2.16-3.75,10.49-16.89,10.49-16.89c0,9.81,8.33,13.14,10.49,16.89
			C861.25,476.58,861.25,481.2,859.08,484.94z"/>
		<path fill="#FFFFFF" d="M673.46,223.93c-7.18,12.44-20.44,20.1-34.8,20.1c-14.36,0-27.63-7.66-34.81-20.1
			c-7.18-12.43-7.18-27.75,0-40.19c6.46-11.18,29.47-47.6,34.02-54.79c0.51-0.8,0.79-1.24,0.79-1.24c0,0.36,0,0.71,0.01,1.06
			c0.59,31.73,27.69,42.68,34.79,54.97C680.64,196.18,680.64,211.5,673.46,223.93z"/>
		<path fill="#FFFFFF" d="M626.09,299.93c-3.64,6.3-10.37,10.19-17.65,10.19c-7.28,0-14.01-3.89-17.65-10.19
			c-3.64-6.31-3.64-14.07,0-20.38c3.64-6.3,17.65-28.41,17.65-28.41c0,16.51,14.01,22.11,17.65,28.41
			C629.73,285.86,629.73,293.62,626.09,299.93z"/>
		<path fill="#FFFFFF" d="M765.84,142.91c-2.09,3.61-5.95,5.84-10.13,5.84c-4.17,0-8.03-2.22-10.12-5.84
			c-2.09-3.62-2.09-8.07,0-11.69c2.09-3.62,10.12-16.3,10.12-16.3c0,9.47,8.04,12.68,10.13,16.3
			C767.92,134.84,767.92,139.29,765.84,142.91z"/>
		<path fill="#FFFFFF" d="M1044.67,211.83c-7,12.12-19.93,19.59-33.93,19.59s-26.93-7.47-33.93-19.59c-7-12.12-6.99-27.05,0-39.18
			c7-12.12,33.93-54.61,33.93-54.61c0,31.73,26.93,42.49,33.93,54.61C1051.67,184.78,1051.67,199.71,1044.67,211.83z"/>
		<path fill="#FFFFFF" d="M825.12,330.17c-4.44,7.7-12.66,12.44-21.55,12.44s-17.1-4.74-21.55-12.44c-4.44-7.7-4.44-17.18,0-24.88
			c4.45-7.7,21.55-34.69,21.55-34.69c0,20.16,17.11,26.99,21.55,34.69C829.57,312.99,829.57,322.47,825.12,330.17z"/>
		<path fill="#FFFFFF" d="M1097.7,338.76c-2.85,4.94-8.12,7.99-13.83,7.99c-5.7,0-10.97-3.05-13.83-7.99
			c-2.85-4.94-2.85-11.02,0-15.96c2.85-4.95,13.83-22.26,13.83-22.26c0,12.93,10.98,17.31,13.83,22.26
			C1100.55,327.74,1100.55,333.82,1097.7,338.76z"/>
		<path fill="#FFFFFF" d="M1606.07,624.11c-2.41,4.17-6.85,6.73-11.66,6.73c-4.81,0-9.26-2.56-11.66-6.73
			c-2.41-4.16-2.41-9.3,0-13.46c2.4-4.17,11.66-18.77,11.66-18.77c0,10.9,9.25,14.6,11.66,18.77
			C1608.47,614.81,1608.47,619.95,1606.07,624.11z"/>
		<path fill="#FFFFFF" d="M184.95,518.73c-5.27,9.12-15,14.75-25.54,14.75c-10.54,0-20.27-5.62-25.54-14.75
			c-5.27-9.12-5.27-20.37,0-29.49c5.27-9.13,25.54-41.11,25.54-41.11c0,23.88,20.27,31.98,25.54,41.11
			C190.22,498.36,190.22,509.61,184.95,518.73z"/>
		<path fill="#FFFFFF" d="M986.64,541.68c-7.4,12.81-21.06,20.7-35.86,20.7c-14.79,0-28.46-7.89-35.85-20.7
			c-7.4-12.81-7.4-28.59,0-41.41c7.39-12.81,35.85-57.71,35.85-57.71c0,33.53,28.46,44.9,35.86,57.71
			C994.04,513.09,994.04,528.87,986.64,541.68z"/>
		<path fill="#FFFFFF" d="M563.5,623.93c-1.86,3.22-5.29,5.2-9.01,5.2c-3.72,0-7.15-1.98-9.01-5.2c-1.86-3.22-1.86-7.19,0-10.41
			c1.86-3.22,9.01-14.5,9.01-14.5c0,8.43,7.15,11.28,9.01,14.5C565.36,616.74,565.36,620.71,563.5,623.93z"/>
		<path fill="#FFFFFF" d="M471.39,565.83c-6.16,10.68-17.56,17.26-29.9,17.26c-12.33,0-23.73-6.58-29.89-17.26
			c-6.17-10.68-6.17-23.84,0-34.52c6.16-10.68,29.89-48.13,29.89-48.13c0,27.96,23.74,37.45,29.9,48.13
			C477.56,541.99,477.56,555.15,471.39,565.83z"/>
		<path fill="#FFFFFF" d="M1212.02,281.33c-5.39,9.33-15.34,15.07-26.11,15.07c-10.77,0-20.72-5.74-26.1-15.07
			c-5.39-9.33-5.39-20.82,0-30.14c5.38-9.33,26.1-42.02,26.1-42.02c0,24.41,20.72,32.69,26.11,42.02
			C1217.4,260.51,1217.4,272.01,1212.02,281.33z"/>
		<path fill="#FFFFFF" d="M255.54,449c-6.5,11.27-18.53,18.21-31.54,18.21c-13.02,0-25.04-6.94-31.55-18.21s-6.51-25.16,0-36.43
			S224,361.8,224,361.8c0,29.5,25.04,39.5,31.54,50.77C262.05,423.84,262.05,437.73,255.54,449z"/>
		<path fill="#FFFFFF" d="M329.21,379.1c-5.73,9.92-16.31,16.04-27.77,16.04s-22.04-6.12-27.77-16.04c-5.73-9.92-5.73-22.14,0-32.07
			c5.73-9.92,27.77-44.7,27.77-44.7c0,25.97,22.04,34.78,27.77,44.7C334.94,356.96,334.94,369.18,329.21,379.1z"/>
		<path fill="#FFFFFF" d="M875.29,134.66c-2.28,3.94-6.49,6.38-11.05,6.38s-8.77-2.44-11.05-6.38c-2.28-3.95-2.28-8.81,0-12.76
			c2.28-3.95,11.05-17.79,11.05-17.79c0,10.33,8.77,13.84,11.05,17.79C877.57,125.85,877.57,130.71,875.29,134.66z"/>
		<path fill="#FFFFFF" d="M1291.81,401.3c-3.6,6.24-10.25,10.08-17.45,10.08s-13.85-3.84-17.45-10.08c-3.6-6.24-3.6-13.92,0-20.16
			c3.6-6.23,17.45-28.09,17.45-28.09c0,16.32,13.85,21.86,17.45,28.09C1295.41,387.38,1295.41,395.06,1291.81,401.3z"/>
		<path fill="#FFFFFF" d="M372.44,308.23c-0.99,1.72-2.18,3.28-3.54,4.66c-0.28,0.29-0.56,0.56-0.85,0.83
			c-4.26,3.93-9.89,6.19-15.85,6.19c-8.35,0-16.06-4.45-20.24-11.68c-4.17-7.23-4.17-16.14,0-23.37
			c4.18-7.24,20.24-32.58,20.24-32.58c0,18.92,16.07,25.34,20.24,32.58C376.62,292.09,376.62,301,372.44,308.23z"/>
		<path fill="#FFFFFF" d="M1478.15,369.38c-3.3,5.73-9.42,9.26-16.03,9.26c-6.62,0-12.73-3.53-16.04-9.26
			c-3.31-5.73-3.31-12.79,0-18.52c3.31-5.73,16.04-25.81,16.04-25.81c0,14.99,12.73,20.08,16.03,25.81
			C1481.46,356.59,1481.46,363.65,1478.15,369.38z"/>
		<path fill="#FFFFFF" d="M685.93,343.15c-5.61,9.72-15.97,15.7-27.19,15.7c-11.22,0-21.59-5.98-27.19-15.7
			c-5.61-9.71-5.61-21.68,0-31.39c5.6-9.72,27.19-43.77,27.19-43.77c0,25.43,21.58,34.05,27.19,43.77
			C691.54,321.47,691.54,333.44,685.93,343.15z"/>
		<path fill="#FFFFFF" d="M894.19,372.16c-3.49,6.06-9.96,9.79-16.96,9.79c-6.99,0-13.46-3.73-16.95-9.79
			c-3.5-6.06-3.5-13.52,0-19.58c3.49-6.06,16.95-27.3,16.95-27.3c0,15.86,13.47,21.24,16.96,27.3
			C897.69,358.64,897.69,366.1,894.19,372.16z"/>
		<path fill="#FFFFFF" d="M916.49,459.89c-4.54,7.86-12.93,12.7-22,12.7c-9.08,0-17.46-4.84-22-12.7c-4.54-7.86-4.54-17.54,0-25.4
			c4.54-7.86,22-35.41,22-35.41c0,20.57,17.46,27.55,22,35.41C921.03,442.35,921.03,452.03,916.49,459.89z"/>
		<path fill="#FFFFFF" d="M469.22,707.67c-2.64,4.58-7.53,7.4-12.81,7.4c-5.29,0-10.17-2.82-12.81-7.4
			c-2.64-4.57-2.64-10.21,0-14.79c2.64-4.57,12.81-20.62,12.81-20.62c0,11.98,10.17,16.05,12.81,20.62
			C471.86,697.46,471.86,703.1,469.22,707.67z"/>
		<path fill="#FFFFFF" d="M590.69,359.81c-3.65,6.32-10.39,10.21-17.69,10.21c-7.29,0-14.03-3.89-17.68-10.21
			c-3.65-6.32-3.65-14.1,0-20.42c3.65-6.32,17.68-28.46,17.68-28.46c0,16.53,14.04,22.14,17.69,28.46S594.34,353.49,590.69,359.81z"
			/>
		<path fill="#FFFFFF" d="M1460.7,594.24c-6,10.4-17.09,16.8-29.1,16.8c-12,0-23.09-6.4-29.1-16.8c-6-10.4-6-23.21,0-33.6
			c6.01-10.4,29.1-46.85,29.1-46.85c0,27.22,23.1,36.45,29.1,46.85C1466.71,571.03,1466.71,583.84,1460.7,594.24z"/>
		<path fill="#FFFFFF" d="M561.71,434.36c-4.04,6.99-11.5,11.29-19.57,11.29s-15.53-4.3-19.57-11.29c-4.04-7-4.04-15.61,0-22.6
			s19.57-31.5,19.57-31.5c0,18.3,15.53,24.51,19.57,31.5C565.74,418.75,565.74,427.36,561.71,434.36z"/>
		<path fill="#FFFFFF" d="M1158.11,342.71c-2.03,3.52-5.79,5.69-9.85,5.69c-4.07,0-7.83-2.17-9.86-5.69
			c-2.03-3.52-2.03-7.86,0-11.38c2.03-3.52,9.86-15.87,9.86-15.87c0,9.22,7.82,12.35,9.85,15.87
			C1160.14,334.85,1160.14,339.19,1158.11,342.71z"/>
		<path fill="#FFFFFF" d="M916.29,682.11c-7.35,12.73-20.93,20.57-35.63,20.57c-14.7,0-28.27-7.84-35.62-20.57
			c-7.35-12.73-7.35-28.41,0-41.14c7.35-12.72,35.62-57.34,35.62-57.34c0,33.32,28.28,44.62,35.63,57.34
			C923.64,653.7,923.64,669.38,916.29,682.11z"/>
		<path fill="#FFFFFF" d="M1331.51,448.5c-2.7,4.69-7.71,7.58-13.12,7.58c-5.42,0-10.42-2.89-13.13-7.58s-2.71-10.47,0-15.16
			c2.71-4.69,13.13-21.13,13.13-21.13c0,12.27,10.41,16.44,13.12,21.13C1334.22,438.03,1334.22,443.81,1331.51,448.5z"/>
		<path fill="#FFFFFF" d="M374.6,553.08c-5.49,9.51-15.62,15.36-26.6,15.36c-10.97,0-21.11-5.85-26.6-15.36
			c-5.48-9.5-5.48-21.21,0-30.71c5.49-9.5,26.6-42.81,26.6-42.81c0,24.87,21.11,33.31,26.6,42.81
			C380.09,531.87,380.09,543.58,374.6,553.08z"/>
		<path fill="#FFFFFF" d="M320.39,466.13c-3.56,6.16-10.13,9.96-17.25,9.96c-7.11,0-13.69-3.8-17.25-9.96
			c-3.55-6.16-3.55-13.75,0-19.91c3.56-6.16,17.25-27.76,17.25-27.76c0,16.13,13.69,21.6,17.25,27.76
			C323.94,452.38,323.94,459.97,320.39,466.13z"/>
		<path fill="#FFFFFF" d="M1397.94,492.74c-4.72,8.17-13.45,13.21-22.89,13.21c-9.45,0-18.17-5.04-22.9-13.21
			c-4.72-8.18-4.72-18.26,0-26.44c4.73-8.18,22.9-36.85,22.9-36.85c0,21.41,18.17,28.67,22.89,36.85
			C1402.66,474.48,1402.66,484.56,1397.94,492.74z"/>
		<path fill="#FFFFFF" d="M1413.93,409.61c-1.89,3.28-5.4,5.3-9.19,5.3s-7.29-2.02-9.18-5.3c-1.9-3.28-1.9-7.32,0-10.61
			c1.89-3.28,9.18-14.78,9.18-14.78c0,8.59,7.3,11.5,9.19,14.78C1415.83,402.29,1415.83,406.33,1413.93,409.61z"/>
		<path fill="#FFFFFF" d="M730.65,213.39c-2.54,4.39-7.22,7.09-12.29,7.09s-9.75-2.7-12.29-7.09c-2.53-4.39-2.53-9.8,0-14.19
			c2.54-4.39,12.29-19.78,12.29-19.78c0,11.49,9.75,15.39,12.29,19.78C733.18,203.59,733.18,209,730.65,213.39z"/>
		<path fill="#FFFFFF" d="M510.51,645.34c-3.84,6.65-10.94,10.74-18.62,10.74c-7.67,0-14.77-4.09-18.61-10.74
			c-3.84-6.65-3.84-14.85,0-21.5c3.84-6.64,18.61-29.95,18.61-29.95c0,17.4,14.78,23.31,18.62,29.95
			C514.35,630.49,514.35,638.69,510.51,645.34z"/>
		<path fill="#FFFFFF" d="M505.35,264c-5.82,10.08-16.57,16.29-28.21,16.29s-22.39-6.21-28.21-16.29c-5.82-10.07-5.82-22.49,0-32.57
			c5.82-10.08,28.21-45.41,28.21-45.41c0,26.38,22.39,35.33,28.21,45.41C511.17,241.51,511.17,253.93,505.35,264z"/>
		<path fill="#FFFFFF" d="M835.9,621.47c-6.82,11.8-19.41,19.07-33.03,19.07s-26.21-7.27-33.03-19.07c-6.81-11.8-6.81-26.33,0-38.13
			c6.82-11.8,33.03-53.16,33.03-53.16c0,30.89,26.21,41.36,33.03,53.16C842.71,595.14,842.71,609.68,835.9,621.47z"/>
		<path fill="#FFFFFF" d="M714.78,278.22c-3.21,5.57-9.16,9-15.59,9s-12.37-3.43-15.59-9c-3.21-5.57-3.21-12.43,0-18
			c3.22-5.57,15.59-25.1,15.59-25.1c0,14.58,12.38,19.53,15.59,25.1C718,265.79,718,272.65,714.78,278.22z"/>
		<path fill="#FFFFFF" d="M847.17,419.55c-4.65,8.07-13.27,13.04-22.59,13.04s-17.93-4.97-22.59-13.04
			c-4.66-8.08-4.66-18.02,0-26.09c4.66-8.07,22.59-36.36,22.59-36.36c0,21.12,17.94,28.29,22.59,36.36
			C851.83,401.53,851.83,411.48,847.17,419.55z"/>
		<path fill="#FFFFFF" d="M134.38,608.5c-4.19,7.25-11.93,11.72-20.3,11.72c-8.38,0-16.12-4.47-20.31-11.72
			c-4.19-7.26-4.19-16.19,0-23.45c4.19-7.25,20.31-32.68,20.31-32.68c0,18.99,16.11,25.43,20.3,32.68
			C138.57,592.31,138.57,601.24,134.38,608.5z"/>
		<path fill="#FFFFFF" d="M1041.51,591.06c-3.88,6.73-11.06,10.87-18.83,10.87c-7.77,0-14.94-4.14-18.83-10.87
			c-3.88-6.73-3.88-15.01,0-21.74c3.89-6.73,18.83-30.31,18.83-30.31c0,17.61,14.95,23.58,18.83,30.31
			C1045.4,576.05,1045.4,584.33,1041.51,591.06z"/>
		<path fill="#FFFFFF" d="M433.39,651.35c-2.58,4.47-7.35,7.22-12.51,7.22c-5.16,0-9.93-2.75-12.51-7.22s-2.58-9.97,0-14.44
			s12.51-20.13,12.51-20.13c0,11.69,9.93,15.66,12.51,20.13C435.97,641.38,435.97,646.88,433.39,651.35z"/>
		<path fill="#FFFFFF" d="M415.54,470.7c-6.72,11.64-19.14,18.81-32.58,18.81c-13.43,0-25.85-7.17-32.57-18.81
			c-6.72-11.64-6.72-25.98,0-37.61c5.83-10.1,26.07-42.16,31.32-50.46c0.8-1.27,1.25-1.98,1.25-1.98c0,0.4,0,0.8,0.02,1.19
			c0.66,29.55,25.93,39.76,32.56,51.25C422.26,444.72,422.26,459.06,415.54,470.7z"/>
		<path fill="#FFFFFF" d="M1032.99,472.46c-3.47,6.01-9.89,9.72-16.83,9.72c-6.95,0-13.37-3.71-16.84-9.72
			c-3.47-6.01-3.47-13.42,0-19.44c3.47-6.01,16.84-27.1,16.84-27.1c0,15.75,13.36,21.09,16.83,27.1S1036.46,466.44,1032.99,472.46z"
			/>
		<path fill="#FFFFFF" d="M1091.52,520.06c-4.2,7.26-11.95,11.74-20.34,11.74c-8.38,0-16.14-4.48-20.33-11.74
			c-4.19-7.27-4.19-16.22,0-23.48c4.19-7.27,20.33-32.73,20.33-32.73c0,19.01,16.14,25.46,20.34,32.73
			C1095.71,503.84,1095.71,512.79,1091.52,520.06z"/>
		<path fill="#FFFFFF" d="M389.77,622.58c-2.3,3.97-6.54,6.42-11.13,6.42c-4.59,0-8.83-2.45-11.12-6.42
			c-2.29-3.97-2.29-8.87,0-12.84c2.29-3.98,11.12-17.91,11.12-17.91c0,10.4,8.83,13.93,11.13,17.91
			C392.06,613.71,392.06,618.61,389.77,622.58z"/>
		<path fill="#FFFFFF" d="M390.95,373.36c-2,3.47-4.74,6.34-7.97,8.48c-0.41,0.28-0.84,0.54-1.27,0.79
			c-3.83,2.23-8.24,3.46-12.82,3.46c-9.09,0-17.5-4.85-22.05-12.73c-4.55-7.88-4.55-17.59,0-25.47
			c3.95-6.84,17.67-28.57,21.21-34.17c0.54-0.85,0.84-1.33,0.84-1.33c0,0.17,0,0.33,0.01,0.5c0.27,20.24,17.54,27.18,22.05,35
			C395.5,355.77,395.5,365.48,390.95,373.36z"/>
		<path fill="#FFFFFF" d="M675.33,402.26c-2.02,3.51-5.77,5.67-9.82,5.67s-7.79-2.16-9.81-5.67c-2.03-3.51-2.03-7.83,0-11.34
			c2.02-3.5,9.81-15.8,9.81-15.8c0,9.18,7.8,12.3,9.82,15.8C677.36,394.43,677.36,398.75,675.33,402.26z"/>
		<path fill="#FFFFFF" d="M775.03,278.91c-4.1,7.1-11.67,11.47-19.87,11.47c-8.19,0-15.76-4.37-19.86-11.47
			c-4.1-7.1-4.1-15.84,0-22.94c4.1-7.1,19.86-31.98,19.86-31.98c0,18.58,15.77,24.88,19.87,31.98
			C779.13,263.07,779.13,271.81,775.03,278.91z"/>
		<path fill="#FFFFFF" d="M970.76,266.03c-3.32,5.75-9.46,9.29-16.11,9.29c-6.64,0-12.78-3.54-16.1-9.29
			c-3.32-5.76-3.32-12.85,0-18.6s16.1-25.92,16.1-25.92c0,15.06,12.79,20.17,16.11,25.92S974.08,260.27,970.76,266.03z"/>
		<path fill="#FFFFFF" d="M492.79,365.94c-3.13,5.42-8.91,8.76-15.17,8.76s-12.05-3.34-15.18-8.76c-3.13-5.42-3.13-12.1,0-17.52
			C465.57,343,477.62,324,477.62,324c0,14.19,12.04,19,15.17,24.42C495.92,353.84,495.92,360.52,492.79,365.94z"/>
		<path fill="#FFFFFF" d="M1666.48,648.62c-2.21,3.84-6.3,6.2-10.73,6.2s-8.52-2.36-10.74-6.2c-2.21-3.84-2.21-8.56,0-12.4
			c2.22-3.83,10.74-17.28,10.74-17.28c0,10.04,8.52,13.45,10.73,17.28C1668.7,640.06,1668.7,644.78,1666.48,648.62z"/>
		<path fill="#FFFFFF" d="M816.4,236.79c-2.16,3.74-6.15,6.04-10.47,6.04c-4.31,0-8.3-2.3-10.46-6.04c-2.16-3.74-2.16-8.34,0-12.08
			c2.16-3.74,10.46-16.84,10.46-16.84c0,9.78,8.31,13.1,10.47,16.84C818.55,228.45,818.55,233.05,816.4,236.79z"/>
		<path fill="#FFFFFF" d="M1132.04,295.8c-2.66,4.6-7.58,7.44-12.9,7.44s-10.24-2.84-12.9-7.44c-2.66-4.61-2.66-10.29,0-14.9
			c2.66-4.61,12.9-20.76,12.9-20.76c0,12.06,10.24,16.15,12.9,20.76C1134.7,285.51,1134.7,291.19,1132.04,295.8z"/>
		<path fill="#FFFFFF" d="M87.21,675.18c-2.65,4.58-7.54,7.41-12.83,7.41c-5.3,0-10.19-2.83-12.83-7.41
			c-2.65-4.58-2.65-10.23,0-14.81c2.64-4.59,12.83-20.66,12.83-20.66c0,12,10.18,16.07,12.83,20.66
			C89.85,664.95,89.85,670.6,87.21,675.18z"/>
		<path fill="#FFFFFF" d="M979.54,626.92c-1.95,3.38-5.55,5.46-9.45,5.46c-3.9,0-7.5-2.08-9.45-5.46c-1.95-3.38-1.95-7.54,0-10.91
			c1.95-3.38,9.45-15.22,9.45-15.22c0,8.84,7.5,11.84,9.45,15.22C981.49,619.38,981.49,623.54,979.54,626.92z"/>
		<path fill="#FFFFFF" d="M1052.95,400.81c-2.56,4.43-7.29,7.17-12.41,7.17c-5.12,0-9.85-2.73-12.41-7.17
			c-2.56-4.43-2.56-9.89,0-14.33c2.56-4.43,12.41-19.97,12.41-19.97c0,11.61,9.85,15.54,12.41,19.97
			C1055.51,390.92,1055.51,396.38,1052.95,400.81z"/>
		<path fill="#FFFFFF" d="M766.77,399.12c-6.69,11.59-19.05,18.73-32.43,18.73c-13.38,0-25.75-7.14-32.44-18.73
			c-6.69-11.59-6.69-25.87,0-37.46c6.69-11.58,32.44-52.21,32.44-52.21c0,30.34,25.74,40.63,32.43,52.21
			C773.46,373.25,773.46,387.53,766.77,399.12z"/>
		<path fill="#FFFFFF" d="M1350.05,266.48c-3.31,5.72-9.41,9.25-16.02,9.25c-6.61,0-12.72-3.53-16.03-9.25
			c-3.3-5.73-3.3-12.78,0-18.51c3.31-5.72,16.03-25.79,16.03-25.79c0,14.99,12.71,20.07,16.02,25.79
			C1353.35,253.7,1353.35,260.75,1350.05,266.48z"/>
		<path fill="#FFFFFF" d="M872.27,250.02c-3.04,5.27-8.66,8.51-14.75,8.51c-6.08,0-11.7-3.24-14.74-8.51
			c-3.04-5.27-3.04-11.76,0-17.02c3.04-5.27,14.74-23.74,14.74-23.74c0,13.79,11.71,18.47,14.75,23.74
			C875.31,238.26,875.31,244.75,872.27,250.02z"/>
		<path fill="#FFFFFF" d="M992.24,401.82c-6.73,11.65-19.16,18.82-32.61,18.82s-25.89-7.17-32.61-18.82
			c-6.73-11.66-6.73-26.01,0-37.66c6.73-11.65,32.61-52.49,32.61-52.49c0,30.49,25.88,40.84,32.61,52.49
			C998.97,375.81,998.97,390.16,992.24,401.82z"/>
		<path fill="#FFFFFF" d="M544.19,569.14c-3.51,6.1-10.01,9.85-17.05,9.85c-7.04,0-13.54-3.75-17.05-9.84
			c-3.52-6.1-3.52-13.6,0-19.7c3.51-6.09,17.05-27.45,17.05-27.45c0,15.95,13.54,21.36,17.05,27.45
			C547.71,555.54,547.71,563.05,544.19,569.14z"/>
		<path fill="#FFFFFF" d="M1516.85,408.2c-3.35,5.8-9.54,9.38-16.24,9.38s-12.89-3.57-16.24-9.38c-3.35-5.8-3.35-12.95,0-18.75
			c3.35-5.8,16.24-26.14,16.24-26.14c0,15.19,12.89,20.34,16.24,26.14C1520.2,395.25,1520.2,402.4,1516.85,408.2z"/>
		<path fill="#FFFFFF" d="M928.3,306.4c-3.71,6.42-10.56,10.37-17.97,10.37c-7.41,0-14.25-3.95-17.96-10.37
			c-3.7-6.42-3.7-14.32,0-20.74c3.71-6.42,17.96-28.91,17.96-28.91c0,16.79,14.26,22.49,17.97,28.91
			C932,292.08,932,299.98,928.3,306.4z"/>
		<path fill="#FFFFFF" d="M262.88,363.76c-2.14,3.7-6.09,5.98-10.36,5.98c-4.28,0-8.22-2.28-10.36-5.98
			c-2.14-3.71-2.14-8.27,0-11.97c2.13-3.7,10.36-16.67,10.36-16.67c0,9.68,8.22,12.97,10.36,16.67
			C265.01,355.49,265.01,360.05,262.88,363.76z"/>
		<path fill="#FFFFFF" d="M457.35,331.26c-4.88,8.45-13.9,13.65-23.65,13.65c-9.76,0-18.77-5.2-23.65-13.65s-4.88-18.86,0-27.31
			c4.88-8.45,23.65-38.06,23.65-38.06c0,22.11,18.77,29.61,23.65,38.06C462.23,312.4,462.23,322.81,457.35,331.26z"/>
		<path fill="#FFFFFF" d="M938.67,198.66c-6.64,11.51-18.93,18.6-32.22,18.6c-13.29,0-25.57-7.09-32.21-18.6
			c-6.65-11.51-6.65-25.69,0-37.2c6.64-11.51,32.21-51.86,32.21-51.86c0,30.13,25.57,40.35,32.22,51.86
			C945.32,172.97,945.32,187.15,938.67,198.66z"/>
		<path fill="#FFFFFF" d="M1364.38,376.24c-5.32,9.21-15.14,14.88-25.77,14.88s-20.45-5.67-25.77-14.88
			c-5.31-9.21-5.31-20.55,0-29.76c5.32-9.2,25.77-41.47,25.77-41.47c0,24.09,20.45,32.27,25.77,41.47
			C1369.69,355.69,1369.69,367.03,1364.38,376.24z"/>
		<path fill="#FFFFFF" d="M937.91,605.52c-2.59,4.48-7.37,7.24-12.54,7.24s-9.96-2.76-12.54-7.24c-2.59-4.48-2.59-10,0-14.48
			c2.58-4.48,12.54-20.19,12.54-20.19c0,11.73,9.95,15.71,12.54,20.19C940.49,595.52,940.49,601.04,937.91,605.52z"/>
		<path fill="#FFFFFF" d="M1236.05,609.28c-4.29,7.44-12.23,12.03-20.83,12.03c-8.59,0-16.53-4.58-20.82-12.03
			c-4.3-7.44-4.3-16.61,0-24.05c4.29-7.44,20.82-33.52,20.82-33.52c0,19.47,16.54,26.08,20.83,33.52
			C1240.35,592.67,1240.35,601.84,1236.05,609.28z"/>
		<path fill="#FFFFFF" d="M344.07,613.89c-2.31,4-6.58,6.46-11.19,6.46c-4.62,0-8.88-2.46-11.19-6.46c-2.31-3.99-2.31-8.92,0-12.92
			c2.31-3.99,11.19-18,11.19-18c0,10.46,8.88,14.01,11.19,18C346.38,604.97,346.38,609.9,344.07,613.89z"/>
		<path fill="#FFFFFF" d="M1188.15,191.4c-2.73,4.72-7.78,7.64-13.24,7.64c-5.46,0-10.5-2.92-13.23-7.64
			c-2.73-4.73-2.73-10.56,0-15.29s13.23-21.3,13.23-21.3c0,12.37,10.51,16.57,13.24,21.3
			C1190.88,180.84,1190.88,186.67,1188.15,191.4z"/>
		<path fill="#FFFFFF" d="M533.18,202.86c-2.4,4.17-6.85,6.74-11.67,6.74s-9.27-2.57-11.68-6.74c-2.4-4.17-2.4-9.31,0-13.48
			c2.41-4.17,11.68-18.79,11.68-18.79c0,10.92,9.26,14.62,11.67,18.79C535.59,193.55,535.59,198.69,533.18,202.86z"/>
		<path fill="#FFFFFF" d="M1623.89,571.38c-5.91,10.22-16.82,16.52-28.62,16.52c-11.81,0-22.72-6.3-28.62-16.52
			c-5.91-10.23-5.91-22.83,0-33.05c5.9-10.23,28.62-46.07,28.62-46.07c0,26.76,22.72,35.84,28.62,46.07
			C1629.79,548.55,1629.79,561.15,1623.89,571.38z"/>
		<path fill="#FFFFFF" d="M1083.85,255.2c-1.89,3.27-5.39,5.29-9.17,5.29c-3.78,0-7.28-2.02-9.17-5.29c-1.89-3.28-1.89-7.32,0-10.59
			c1.89-3.28,9.17-14.76,9.17-14.76c0,8.57,7.28,11.48,9.17,14.76C1085.74,247.88,1085.74,251.92,1083.85,255.2z"/>
		<path fill="#FFFFFF" d="M1228.34,388.59c-5.48,9.48-15.59,15.32-26.53,15.32c-10.95,0-21.06-5.84-26.53-15.32
			c-5.48-9.48-5.48-21.16,0-30.64c5.47-9.47,26.53-42.7,26.53-42.7c0,24.81,21.05,33.23,26.53,42.7
			C1233.81,367.43,1233.81,379.11,1228.34,388.59z"/>
		<path fill="#FFFFFF" d="M1562.73,473.76c-5.14,8.9-14.63,14.38-24.9,14.38c-10.27,0-19.76-5.48-24.89-14.38
			c-5.14-8.89-5.14-19.85,0-28.75c5.13-8.89,24.89-40.07,24.89-40.07c0,23.28,19.76,31.18,24.9,40.07
			C1567.86,453.91,1567.86,464.87,1562.73,473.76z"/>
		<path fill="#FFFFFF" d="M1478.97,478.1c-5.39,9.32-15.33,15.07-26.1,15.07s-20.71-5.75-26.1-15.07c-5.38-9.32-5.38-20.81,0-30.13
			c5.39-9.33,26.1-42.01,26.1-42.01c0,24.4,20.71,32.68,26.1,42.01C1484.35,457.29,1484.35,468.78,1478.97,478.1z"/>
		<path fill="#FFFFFF" d="M1291.26,655.22c-3.85,6.66-10.95,10.76-18.64,10.76s-14.8-4.1-18.64-10.76c-3.84-6.66-3.84-14.86,0-21.52
			c3.84-6.66,18.64-30,18.64-30c0,17.43,14.8,23.34,18.64,30C1295.1,640.36,1295.1,648.56,1291.26,655.22z"/>
		<path fill="#FFFFFF" d="M739.1,596.45c-3.05,5.28-8.69,8.54-14.79,8.54s-11.73-3.26-14.78-8.54c-3.05-5.28-3.05-11.79,0-17.07
			c3.05-5.28,14.78-23.8,14.78-23.8c0,13.83,11.74,18.52,14.79,23.8C742.15,584.66,742.15,591.17,739.1,596.45z"/>
		<path fill="#FFFFFF" d="M242.08,603.82c-2.74,4.74-7.81,7.67-13.29,7.67c-5.48,0-10.55-2.93-13.29-7.67
			c-2.74-4.75-2.74-10.6,0-15.35s13.29-21.39,13.29-21.39c0,12.43,10.55,16.64,13.29,21.39S244.82,599.07,242.08,603.82z"/>
		<path fill="#FFFFFF" d="M866.24,304.19c-2.28,3.95-6.5,6.39-11.07,6.39c-4.56,0-8.78-2.44-11.06-6.39
			c-2.28-3.95-2.28-8.82,0-12.77c2.28-3.96,11.06-17.81,11.06-17.81c0,10.34,8.79,13.85,11.07,17.81
			C868.52,295.37,868.52,300.24,866.24,304.19z"/>
		<path fill="#FFFFFF" d="M192.07,596.38c-3.44,5.96-9.79,9.63-16.67,9.63s-13.24-3.67-16.68-9.63c-3.43-5.96-3.43-13.3,0-19.25
			c3.44-5.96,16.68-26.84,16.68-26.84c0,15.59,13.23,20.88,16.67,26.84C195.51,583.08,195.51,590.42,192.07,596.38z"/>
		<path fill="#FFFFFF" d="M625.84,583.02c-4.15,7.17-11.8,11.59-20.09,11.59c-8.28,0-15.94-4.42-20.08-11.59
			c-4.14-7.18-4.14-16.02,0-23.2c4.14-7.17,20.08-32.32,20.08-32.32c0,18.78,15.94,25.15,20.09,32.32
			C629.98,567,629.98,575.84,625.84,583.02z"/>
		<path fill="#FFFFFF" d="M581.54,269.94c-5.4,9.35-15.37,15.11-26.17,15.11c-10.79,0-20.77-5.76-26.16-15.11
			c-5.4-9.34-5.4-20.86,0-30.21c5.39-9.35,26.16-42.12,26.16-42.12c0,24.47,20.77,32.77,26.17,42.12
			C586.94,249.08,586.94,260.59,581.54,269.94z"/>
		<path fill="#FFFFFF" d="M712.57,159.92c-3,5.18-8.53,8.37-14.51,8.37c-5.99,0-11.52-3.19-14.51-8.37
			c-2.99-5.19-2.99-11.57,0-16.76c2.99-5.18,14.51-23.35,14.51-23.35c0,13.57,11.51,18.17,14.51,23.35
			C715.56,148.35,715.56,154.73,712.57,159.92z"/>
		<path fill="#FFFFFF" d="M1054.45,326.78c-6.81,11.81-19.4,19.08-33.03,19.08c-13.63,0-26.22-7.27-33.03-19.08
			c-6.82-11.8-6.82-26.34,0-38.14c6.81-11.8,33.03-53.17,33.03-53.17c0,30.89,26.22,41.37,33.03,53.17
			C1061.27,300.44,1061.27,314.98,1054.45,326.78z"/>
		<path fill="#FFFFFF" d="M845.89,171.24c-4.77,8.26-13.59,13.35-23.12,13.35c-9.54,0-18.35-5.09-23.12-13.35
			c-4.77-8.26-4.77-18.44,0-26.69c4.77-8.26,23.12-37.21,23.12-37.21c0,21.61,18.35,28.95,23.12,37.21
			C850.65,152.8,850.65,162.98,845.89,171.24z"/>
		<path fill="#FFFFFF" d="M1593.24,483.71c-1.87,3.25-5.33,5.24-9.08,5.24c-3.74,0-7.21-1.99-9.08-5.24
			c-1.87-3.24-1.87-7.24,0-10.49c1.87-3.24,9.08-14.62,9.08-14.62c0,8.5,7.21,11.38,9.08,14.62
			C1595.12,476.47,1595.12,480.47,1593.24,483.71z"/>
		<path fill="#FFFFFF" d="M716.13,521.77c-6.69,11.58-19.04,18.71-32.41,18.71c-13.37,0-25.72-7.13-32.41-18.71
			c-6.68-11.57-6.68-25.84,0-37.42c6.69-11.58,32.41-52.16,32.41-52.16c0,30.3,25.72,40.58,32.41,52.16
			C722.81,495.93,722.81,510.19,716.13,521.77z"/>
		<path fill="#FFFFFF" d="M1168.54,607.31c-2.82,4.88-8.02,7.88-13.65,7.88s-10.84-3-13.65-7.88c-2.82-4.88-2.82-10.89,0-15.76
			c2.81-4.88,13.65-21.98,13.65-21.98c0,12.77,10.83,17.1,13.65,21.98C1171.36,596.42,1171.36,602.43,1168.54,607.31z"/>
		<path fill="#FFFFFF" d="M1322.1,514.34c-1.99,3.46-5.68,5.59-9.68,5.59s-7.69-2.13-9.69-5.59s-2-7.72,0-11.18
			s9.69-15.59,9.69-15.59c0,9.06,7.69,12.13,9.68,15.59C1324.1,506.62,1324.1,510.88,1322.1,514.34z"/>
		<path fill="#FFFFFF" d="M874.77,544.34c-2.17,3.76-6.19,6.08-10.53,6.08c-4.34,0-8.35-2.32-10.52-6.08
			c-2.18-3.76-2.18-8.39,0-12.16c2.17-3.76,10.52-16.94,10.52-16.94c0,9.85,8.36,13.18,10.53,16.94
			C876.94,535.95,876.94,540.58,874.77,544.34z"/>
		<path fill="#FFFFFF" d="M1431.54,340.29c-6.05,10.49-17.23,16.94-29.34,16.94c-12.1,0-23.28-6.45-29.34-16.94
			c-6.05-10.48-6.05-23.39,0-33.88c5.56-9.61,25.61-41.33,28.88-46.5c0.3-0.47,0.46-0.72,0.46-0.72c0,0.35,0,0.71,0.02,1.05
			c0.58,26.62,23.35,35.83,29.32,46.17C1437.59,316.9,1437.59,329.81,1431.54,340.29z"/>
		<path fill="#FFFFFF" d="M1250.19,219.01c-3.12,5.4-8.88,8.73-15.12,8.73s-12.01-3.33-15.13-8.73c-3.12-5.41-3.12-12.07,0-17.47
			c3.12-5.4,15.13-24.35,15.13-24.35c0,14.15,12,18.94,15.12,24.35C1253.31,206.94,1253.31,213.6,1250.19,219.01z"/>
		<path fill="#FFFFFF" d="M584.35,182.51c-2.28,3.95-6.49,6.38-11.05,6.38s-8.77-2.43-11.05-6.38s-2.28-8.81,0-12.76
			s11.05-17.79,11.05-17.79c0,10.33,8.77,13.84,11.05,17.79C586.63,173.7,586.63,178.56,584.35,182.51z"/>
		<path fill="#FFFFFF" d="M968.15,140.64c-2.13,3.69-6.07,5.96-10.33,5.96s-8.2-2.27-10.33-5.96s-2.13-8.24,0-11.93
			c2.13-3.7,10.33-16.63,10.33-16.63c0,9.66,8.2,12.93,10.33,16.63C970.28,132.4,970.28,136.94,968.15,140.64z"/>
		<path fill="#FFFFFF" d="M577.65,514.52c-2.93,5.08-8.35,8.21-14.21,8.21s-11.27-3.13-14.2-8.21c-2.94-5.07-2.93-11.33,0-16.4
			c2.93-5.08,14.2-22.87,14.2-22.87c0,13.29,11.28,17.79,14.21,22.87C580.58,503.19,580.58,509.45,577.65,514.52z"/>
		<path fill="#FFFFFF" d="M1359.12,654.97c-2.18,3.78-6.21,6.1-10.57,6.1c-4.37,0-8.4-2.32-10.58-6.1c-2.18-3.78-2.18-8.44,0-12.21
			c2.18-3.78,10.58-17.03,10.58-17.03c0,9.89,8.39,13.25,10.57,17.03C1361.3,646.53,1361.3,651.19,1359.12,654.97z"/>
		<path fill="#FFFFFF" d="M1528.6,598.97c-1.91,3.31-5.44,5.35-9.27,5.35c-3.82,0-7.35-2.04-9.27-5.35c-1.91-3.31-1.91-7.39,0-10.7
			c1.92-3.31,9.27-14.92,9.27-14.92c0,8.67,7.36,11.61,9.27,14.92C1530.52,591.58,1530.52,595.66,1528.6,598.97z"/>
		<path fill="#FFFFFF" d="M1285.72,567.75c-2.29,3.96-6.51,6.4-11.09,6.4c-4.57,0-8.8-2.44-11.08-6.4c-2.29-3.96-2.29-8.84,0-12.8
			c2.28-3.96,11.08-17.85,11.08-17.85c0,10.37,8.8,13.89,11.09,17.85C1288.01,558.91,1288.01,563.79,1285.72,567.75z"/>
		<path fill="#FFFFFF" d="M1147.46,442.61c-7.36,12.75-20.96,20.6-35.68,20.6s-28.32-7.85-35.68-20.6
			c-7.36-12.74-7.36-28.45,0-41.19c7.36-12.75,35.68-57.43,35.68-57.43c0,33.36,28.32,44.68,35.68,57.43
			C1154.82,414.16,1154.82,429.87,1147.46,442.61z"/>
		<path fill="#FFFFFF" d="M675.7,597.57c-2.28,3.96-6.51,6.39-11.08,6.39s-8.79-2.43-11.08-6.39c-2.28-3.96-2.28-8.84,0-12.79
			c2.29-3.96,11.08-17.84,11.08-17.84c0,10.36,8.8,13.88,11.08,17.84C677.98,588.73,677.98,593.61,675.7,597.57z"/>
		<path fill="#FFFFFF" d="M516.44,495.05c-2.97,5.15-8.47,8.32-14.42,8.32c-5.95,0-11.44-3.17-14.42-8.32
			c-2.97-5.15-2.97-11.5,0-16.65c2.98-5.16,14.42-23.21,14.42-23.21c0,13.48,11.45,18.05,14.42,23.21
			C519.42,483.55,519.42,489.9,516.44,495.05z"/>
		<path fill="#FFFFFF" d="M300.97,598.53c-2.99,5.18-8.51,8.37-14.49,8.37c-5.98,0-11.5-3.19-14.49-8.37
			c-2.98-5.17-2.98-11.55,0-16.72c2.99-5.18,14.49-23.32,14.49-23.32c0,13.54,11.5,18.14,14.49,23.32
			C303.96,586.98,303.96,593.36,300.97,598.53z"/>
		<path fill="#FFFFFF" d="M1113.53,595.37c-4.34,7.52-12.36,12.15-21.04,12.15s-16.7-4.63-21.04-12.15
			c-4.34-7.52-4.34-16.78,0-24.29c4.34-7.52,21.04-33.86,21.04-33.86c0,19.67,16.7,26.34,21.04,33.86
			C1117.87,578.59,1117.87,587.85,1113.53,595.37z"/>
		<path fill="#FFFFFF" d="M1302.43,308.01c-6.69,11.58-19.05,18.72-32.43,18.72s-25.74-7.14-32.43-18.72
			c-6.69-11.59-6.69-25.86,0-37.45c6.69-11.58,32.43-52.19,32.43-52.19c0,30.32,25.74,40.61,32.43,52.19
			C1309.11,282.15,1309.11,296.42,1302.43,308.01z"/>
		<path fill="#FFFFFF" d="M1519.13,538.65c-2.58,4.46-7.35,7.22-12.51,7.22s-9.93-2.76-12.51-7.22c-2.58-4.47-2.58-9.98,0-14.45
			c2.58-4.47,12.51-20.13,12.51-20.13c0,11.69,9.93,15.66,12.51,20.13C1521.71,528.67,1521.71,534.17,1519.13,538.65z"/>
		<path fill="#FFFFFF" d="M533.04,331.38c-2.85,4.94-8.12,7.98-13.82,7.98c-5.7,0-10.97-3.04-13.82-7.98
			c-2.86-4.94-2.86-11.02,0-15.96c2.85-4.94,13.82-22.25,13.82-22.25c0,12.93,10.97,17.31,13.82,22.25
			C535.89,320.36,535.89,326.44,533.04,331.38z"/>
		<path fill="#FFFFFF" d="M480.86,450.16c-3.6,6.23-10.24,10.06-17.42,10.06c-7.19,0-13.83-3.83-17.42-10.06
			c-3.6-6.22-3.6-13.89,0-20.11c3.59-6.23,17.42-28.04,17.42-28.04c0,16.29,13.82,21.81,17.42,28.04
			C484.45,436.27,484.45,443.94,480.86,450.16z"/>
		<path fill="#FFFFFF" d="M1130.08,196.69c-4.73,8.19-13.47,13.24-22.93,13.24c-9.46,0-18.2-5.05-22.93-13.24
			c-4.72-8.19-4.72-18.29,0-26.48c4.73-8.19,22.93-36.9,22.93-36.9c0,21.44,18.2,28.71,22.93,36.9
			C1134.81,178.4,1134.81,188.5,1130.08,196.69z"/>
		<path fill="#FFFFFF" d="M648.83,460.78c-7.16,12.4-20.39,20.04-34.71,20.04s-27.55-7.64-34.71-20.04
			c-7.16-12.4-7.16-27.68,0-40.08c7.16-12.4,34.71-55.87,34.71-55.87c0,32.46,27.55,43.47,34.71,55.87
			C655.99,433.1,655.99,448.38,648.83,460.78z"/>
		<path fill="#FFFFFF" d="M280.25,542.69c-6.32,10.95-18.01,17.7-30.65,17.7c-12.65,0-24.33-6.75-30.65-17.7
			c-6.33-10.95-6.33-24.45,0-35.4c6.32-10.95,30.65-49.34,30.65-49.34c0,28.67,24.33,38.39,30.65,49.34
			C286.58,518.24,286.58,531.74,280.25,542.69z"/>
		<path fill="#FFFFFF" d="M1178.13,536.93c-4.64,8.04-13.22,12.99-22.5,12.99c-9.28,0-17.86-4.95-22.5-12.99
			c-4.64-8.03-4.64-17.94,0-25.97c4.64-8.04,22.5-36.22,22.5-36.22c0,21.04,17.86,28.18,22.5,36.22
			C1182.77,518.99,1182.77,528.9,1178.13,536.93z"/>
		<path fill="#FFFFFF" d="M1068.64,153.91c-2.33,4.05-6.66,6.54-11.33,6.54c-4.68,0-9-2.49-11.34-6.54c-2.33-4.05-2.33-9.04,0-13.09
			c2.34-4.05,11.34-18.25,11.34-18.25c0,10.6,8.99,14.2,11.33,18.25C1070.98,144.87,1070.98,149.86,1068.64,153.91z"/>
		<path fill="#FFFFFF" d="M1193.6,457.25c-1.92,3.32-5.46,5.37-9.3,5.37c-3.84,0-7.39-2.05-9.31-5.37c-1.92-3.33-1.92-7.43,0-10.75
			c1.92-3.33,9.31-14.98,9.31-14.98c0,8.7,7.38,11.65,9.3,14.98C1195.52,449.82,1195.52,453.92,1193.6,457.25z"/>
		<path fill="#FFFFFF" d="M779.04,198.98c-2.85,4.93-8.11,7.97-13.8,7.97s-10.95-3.04-13.8-7.97c-2.84-4.93-2.84-11,0-15.93
			c2.85-4.93,13.8-22.21,13.8-22.21c0,12.91,10.95,17.28,13.8,22.21C781.88,187.98,781.88,194.05,779.04,198.98z"/>
	</g>
</g>
</svg>
